<svg xmlns="http://www.w3.org/2000/svg" viewBox="0 0 256 256" role="img" aria-label="VESTA core">
  <rect width="256" height="256" rx="56" fill="#1a1614"/>
  <path d="M128 40c14 28-6 44-6 62 0 14 10 22 10 22s16-10 16-30c22 18 34 40 34 66a56 56 0 1 1-112 0c0-30 26-50 34-80 6-22 6-30 6-40 6 0 12 0 18 0z" fill="none"/>
  <path d="M128 44c10 22-8 40-8 60 0 16 12 26 12 26s18-12 18-34c20 18 30 40 30 64a52 52 0 1 1-104 0c0-34 30-52 40-88 2-8 2-18 0-28 4 0 8 0 12 0z" fill="#e2470a"/>
  <path d="M128 108c6 14 16 22 16 40a16 16 0 1 1-32 0c0-14 10-22 16-40z" fill="#ffd7a8"/>
</svg>
